<svg width="308" height="359" viewBox="0 0 308 359" fill="none" xmlns="http://www.w3.org/2000/svg">
<path d="M128.628 189.799C128.305 190.769 129.557 192.299 124.746 198.603C121.149 203.315 137 213.116 137 215.389C137 218.363 124.38 210.024 128.628 200.281C130.894 195.085 130.977 197.484 133.487 186.442C134.505 181.962 131.217 179.147 124.746 175.9C122.517 174.782 117.017 169.951 120.864 164.209C124.632 158.584 125.717 160.312 127.334 156.415C129.087 152.193 125.393 149 128.305 144.4C131.217 139.8 120.54 135.253 120.216 131.735C120.216 126.485 126.441 126.089 128.628 119.72C131.155 112.359 128.531 108.605 127.334 107.704C126.586 107.141 126.203 92.1624 120.54 93.0368C116.334 93.6863 125.347 106.73 124.099 115.498C123.249 121.467 115.687 127.784 115.04 131.735C114.26 136.488 125.289 142.11 122.481 144.4C118.599 150.192 123.452 149.271 123.775 155.116C124.099 160.962 115.01 159.35 116.422 169.656C116.977 173.715 119.246 173.551 120.864 177.199C122.481 180.847 132.183 179.127 128.628 189.799Z" fill="#693D24"/>
<path d="M109 73L112.5 72.5L115 80.5L127.5 99.5V146.5C127.5 146.5 125.927 153.374 123 156.5C115.582 164.421 98.0005 156.5 95.5001 152.5C92.9997 148.5 109 73 109 73Z" fill="#743F21"/>
<path d="M125.504 123.565C125.921 122.971 128.129 122.981 128.468 122.981C128.807 122.981 129.061 123.566 129.061 123.566L129.711 125.808L126.01 126.788C126.01 126.788 124.932 124.381 125.504 123.565Z" fill="#E8D9B4"/>
<path d="M174.962 124.522C175.216 125.2 173.941 126.979 173.747 127.252C173.552 127.526 172.921 127.395 172.921 127.395L170.686 126.634L171.997 123.082C171.997 123.082 174.613 123.592 174.962 124.522Z" fill="#E8D9B4"/>
<path d="M194 139.655C186.248 149.926 169.767 157 150.662 157C131.294 157 114.593 149.696 107 139.172L127.601 131.664V94H172.819V131.942L194 139.655Z" fill="#F7AD83"/>
<path d="M173 99V108.108C167.97 112.391 159.722 116 151.022 116C140.056 116 131.533 111.153 127 107.518V99.5559L143.058 99H173Z" fill="#EC685A" fill-opacity="0.2"/>
<path d="M186.902 23.8053C187.902 25.8053 188.918 30.9113 188.902 31.8052L189.902 45.3052C189.902 46.8052 189.902 61.8053 188.902 66.8052C187.902 72.8053 186.402 77.8053 182.402 85.3053C178.402 92.8053 177.902 93.3053 171.902 99.3053C165.902 105.305 155.402 110.305 148.902 110.305C142.402 110.305 135.902 106.805 128.902 100.805C121.902 94.8053 120.402 92.3053 117.902 87.3053C115.402 82.3053 114.902 80.8052 112.402 72.8053C109.902 64.8053 110.402 58.3051 110.402 51.3051C110.402 44.3051 110.402 33.805 112.402 27.8052C114.402 21.8053 118.401 15.8052 125.402 11.3052C132.402 6.80531 138.901 4.30528 150.402 4.80528C161.902 5.30528 167.902 7.80526 172.902 10.3052C177.902 12.8053 180.228 14.1487 182.402 16.8053C184.575 19.4618 185.902 21.8053 186.902 23.8053Z" fill="#F7AD83"/>
<path d="M182.5 51.5C182.5 51.5 179.03 48.2233 175.306 47.8656C171.5 47.5 159.978 48.1667 159.978 48.1667C159.749 48.129 159.537 48.0242 159.368 47.8656C159.2 47.707 159.001 47.5 159 47C159 46.5 159 46.5 159 46C159 45.5 159 45.5001 160 45C161 44.4999 173.558 44 176 44.4999C178.442 44.9999 180.64 47.0327 183.675 49.9191C183.844 50.1043 183.953 50.3362 183.988 50.5845C184.023 50.8328 183.982 51.0858 183.87 51.3103C183.759 51.5348 183.582 51.7203 183.363 51.8424C183.145 51.9646 182.5 51.5 182.5 51.5Z" fill="#885031"/>
<path d="M120.5 51.2072C120.5 51.2072 123.97 47.9305 127.694 47.5728C131.5 47.2072 143.022 47.8738 143.022 47.8738C143.251 47.8362 143.463 47.7314 143.632 47.5728C143.8 47.4141 143.999 47.2071 144 46.7071C144 46.2071 144 46.2071 144 45.7071C144 45.2071 144 45.2072 143 44.7072C142 44.2071 129.442 43.7071 127 44.2071C124.558 44.707 122.36 46.7399 119.325 49.6263C119.156 49.8115 119.047 50.0434 119.012 50.2916C118.977 50.5399 119.018 50.7929 119.13 51.0174C119.241 51.2419 119.418 51.4274 119.637 51.5496C119.855 51.6717 120.5 51.2072 120.5 51.2072Z" fill="#885031"/>
<path d="M145.345 99.1852C145.268 99.1722 145.195 99.143 145.139 99.1021C145.083 99.0612 145.047 99.011 145.036 98.9594C145.031 98.9293 145.034 98.8997 145.046 98.8722C145.058 98.8446 145.079 98.8197 145.107 98.799C145.136 98.7782 145.171 98.7619 145.21 98.7511C145.25 98.7402 145.294 98.735 145.339 98.7358C145.339 98.7358 147.866 97.6902 149.695 97.7405C151.405 97.7876 153.952 98.8327 153.952 98.8327C153.997 98.8325 154.043 98.8383 154.087 98.8497C154.131 98.8612 154.172 98.8782 154.208 98.8995C154.244 98.9209 154.274 98.9463 154.297 98.9741C154.319 99.002 154.333 99.0318 154.338 99.0617C154.35 99.1218 154.325 99.1791 154.27 99.2212C154.214 99.2633 154.132 99.2867 154.042 99.2863C154.042 99.2863 151.39 98.5043 149.667 98.4835C147.933 98.4626 145.422 99.1928 145.422 99.1928L145.345 99.1852Z" fill="#1A1A1A"/>
<path d="M148.931 75.8695C148.097 75.6702 147.355 75.1834 146.804 74.4745C146.501 74.055 146.284 73.5623 146.168 73.0284C146.052 72.4946 146.038 71.9315 146.129 71.3756L149.584 61.3882L150.873 52.8121C150.901 52.6124 150.974 52.4076 151.118 52.2788C151.212 52.1949 151.357 52.1466 151.534 52.1428C151.711 52.1389 151.809 52.2164 151.885 52.2621C151.962 52.3077 151.958 52.324 152.001 52.3865C152.044 52.4491 152.034 52.5762 152.033 52.6219C152.031 52.735 152.032 52.6923 152.03 52.7932L150.963 61.2756L147.458 71.501C147.396 71.8505 147.4 72.2059 147.469 72.5438C147.538 72.8816 147.671 73.1944 147.859 73.4616C148.173 73.8238 148.553 74.1058 148.977 74.2906C149.401 74.4753 149.86 74.5591 150.326 74.5368C151.069 74.6062 151.829 74.3787 152.473 73.8937C152.608 73.7615 152.779 73.6896 152.952 73.6931C153.124 73.6966 153.285 73.7752 153.399 73.9125C153.513 74.0498 153.573 74.2352 153.566 74.43C153.558 74.6249 153.485 74.8141 153.36 74.9583C152.442 75.7477 151.315 76.1355 150.207 76.0435C149.774 76.0383 149.346 75.9799 148.931 75.8695Z" fill="#1A1A1A"/>
<path d="M187.034 73.1731C187.66 73.5568 188.333 73.8589 189.037 74.072C192.822 75.2798 195.54 69.5071 196.619 64.0056C197.698 58.5041 198.014 51.2572 194.119 50.5056C192.026 50.1025 190.191 55.1136 188.182 56.8548C188.315 62.3172 187.93 67.7809 187.034 73.1731Z" fill="#F69475"/>
<path d="M194.09 68.6221C196.072 64.847 194.137 60.043 193.64 58.9468C193.871 58.4418 194.152 58.0137 194.464 57.6894C194.776 57.3652 195.112 57.1518 195.452 57.0628C196.802 56.7889 197.89 58.843 197.902 58.8444L198.222 58.2999C198.172 58.2045 197.008 56.007 195.472 56.3111C195.044 56.4228 194.621 56.6995 194.233 57.1218C193.844 57.5441 193.5 58.1018 193.223 58.7559L193.103 59.0179L193.216 59.2327C193.238 59.2876 195.778 64.4093 193.812 68.1489L194.09 68.6221Z" fill="#1A1A1A"/>
<path d="M174.12 82.5C177.433 82.5 176.905 78.5 178.62 75.5C180.62 72 188.314 63.5 185 63.5C181.686 63.5 174.12 71 172.12 74.5C170.12 78 170.806 82.5 174.12 82.5Z" fill="#F69475"/>
<path d="M125.698 83C122.384 83 122.912 79 121.198 76C119.198 72.5 111.504 64 114.818 64C118.132 64 125.698 71.5 127.698 75C129.698 78.5 129.012 83 125.698 83Z" fill="#F69475"/>
<path d="M199 268L122 256L198.115 267.83L199 268Z" fill="#406468"/>
<g filter="url(#filter0_f_3245_169)">
<path d="M10.5571 218.686C13.5571 215.574 63.7321 159.194 67.5187 151.342C71.3053 143.489 97.8166 172.66 97.8166 172.66C97.8166 172.66 44.3174 243.287 40.2345 248.208C36.1515 253.129 26.4718 256.221 21.7622 249.012C17.4486 242.41 7.55709 221.799 10.5571 218.686Z" fill="#FFF1CC"/>
</g>
<g filter="url(#filter1_f_3245_169)">
<path d="M232.499 346C232.499 326.5 237.656 303.235 238.5 288C239.741 265.596 240.519 255.845 227.721 224C206.221 170.5 193.999 162.098 193.999 162.098L227.721 148C227.721 148 258.384 188.092 266.192 243.546C274 299 266.192 346 266.192 346H232.499Z" fill="#FFF1CC"/>
</g>
<g filter="url(#filter2_f_3245_169)">
<path d="M128.5 4.99999C128.5 4.99999 165 -0.999969 183.5 14C203.281 30.0383 211.5 69 211.5 69C211.5 69 207.299 123.111 211.5 161C214.642 189.338 230.861 204.636 211.5 203C198.059 201.864 189.671 198.859 179.5 190C152.555 166.531 189.515 87.1311 186 57C182.5 27 167 39 159 30.5C148.102 18.9205 133.5 20.5 133.5 20.5C133.5 20.5 124 28 121 39C116.184 56.6597 107 40.5 111 86.9999C114.715 130.19 156.872 168.083 125.5 198C118.444 204.728 104.5 211.5 104.5 211.5C104.5 211.5 89.9154 192.317 84.9997 178C76.82 154.176 99.4786 139.683 99.9998 114.5C100.623 84.4051 88.833 61.0331 101 33.5C109.591 14.0586 128.5 4.99999 128.5 4.99999Z" fill="#885031"/>
</g>
<g filter="url(#filter3_f_3245_169)">
<path d="M173.15 131.833C173.205 131.833 173.272 131.833 173.353 131.832C173.598 131.832 173.96 131.833 174.429 131.84C175.366 131.854 176.727 131.89 178.42 131.981C181.806 132.162 186.519 132.558 191.823 133.422C202.441 135.151 215.396 138.747 224.846 146.196C225.831 146.973 226.38 148.567 226.519 150.957C226.656 153.331 226.386 156.418 225.811 160.086C224.661 167.422 222.304 177.029 219.621 187.808C219.471 188.408 219.321 189.012 219.169 189.62C213.891 210.808 207.574 236.168 206.75 257.49C205.729 283.932 206.229 306.315 206.984 322.087C207.362 329.974 207.804 336.208 208.151 340.47C208.325 342.602 208.475 344.241 208.581 345.347C208.635 345.9 208.677 346.32 208.706 346.601C208.712 346.656 208.717 346.706 208.722 346.75H94.7598C94.7642 346.633 94.7701 346.477 94.7773 346.284C94.795 345.808 94.8206 345.107 94.8524 344.204C94.9159 342.399 95.0038 339.789 95.1014 336.57C95.2967 330.132 95.5311 321.256 95.6874 311.504C95.9998 292.005 96.0002 268.993 94.749 254.978C92.9598 234.936 84.8302 209.507 78.0952 188.443L78.0872 188.418C74.7204 177.888 71.7036 168.452 69.9934 161.311C69.1374 157.736 68.6124 154.751 68.5315 152.498C68.491 151.371 68.5622 150.44 68.7517 149.715C68.9413 148.99 69.2431 148.494 69.6467 148.203C80.1647 140.606 94.5857 136.365 106.399 134.024C112.302 132.854 117.546 132.161 121.314 131.759C123.198 131.559 124.712 131.431 125.756 131.354C126.277 131.315 126.681 131.289 126.954 131.273C127.063 131.266 127.151 131.261 127.218 131.258C127.25 131.309 127.292 131.372 127.345 131.447C127.489 131.649 127.715 131.934 128.049 132.272C128.716 132.95 129.812 133.844 131.538 134.733C134.989 136.511 140.956 138.271 151.055 138.271C161.15 138.271 166.677 136.659 169.689 135.023C171.197 134.204 172.075 133.379 172.58 132.747C172.831 132.431 172.989 132.165 173.085 131.973C173.111 131.921 173.132 131.874 173.15 131.833Z" fill="#FFF1CC"/>
<path d="M173.15 131.833C173.205 131.833 173.272 131.833 173.353 131.832C173.598 131.832 173.96 131.833 174.429 131.84C175.366 131.854 176.727 131.89 178.42 131.981C181.806 132.162 186.519 132.558 191.823 133.422C202.441 135.151 215.396 138.747 224.846 146.196C225.831 146.973 226.38 148.567 226.519 150.957C226.656 153.331 226.386 156.418 225.811 160.086C224.661 167.422 222.304 177.029 219.621 187.808C219.471 188.408 219.321 189.012 219.169 189.62C213.891 210.808 207.574 236.168 206.75 257.49C205.729 283.932 206.229 306.315 206.984 322.087C207.362 329.974 207.804 336.208 208.151 340.47C208.325 342.602 208.475 344.241 208.581 345.347C208.635 345.9 208.677 346.32 208.706 346.601C208.712 346.656 208.717 346.706 208.722 346.75H94.7598C94.7642 346.633 94.7701 346.477 94.7773 346.284C94.795 345.808 94.8206 345.107 94.8524 344.204C94.9159 342.399 95.0038 339.789 95.1014 336.57C95.2967 330.132 95.5311 321.256 95.6874 311.504C95.9998 292.005 96.0002 268.993 94.749 254.978C92.9598 234.936 84.8302 209.507 78.0952 188.443L78.0872 188.418C74.7204 177.888 71.7036 168.452 69.9934 161.311C69.1374 157.736 68.6124 154.751 68.5315 152.498C68.491 151.371 68.5622 150.44 68.7517 149.715C68.9413 148.99 69.2431 148.494 69.6467 148.203C80.1647 140.606 94.5857 136.365 106.399 134.024C112.302 132.854 117.546 132.161 121.314 131.759C123.198 131.559 124.712 131.431 125.756 131.354C126.277 131.315 126.681 131.289 126.954 131.273C127.063 131.266 127.151 131.261 127.218 131.258C127.25 131.309 127.292 131.372 127.345 131.447C127.489 131.649 127.715 131.934 128.049 132.272C128.716 132.95 129.812 133.844 131.538 134.733C134.989 136.511 140.956 138.271 151.055 138.271C161.15 138.271 166.677 136.659 169.689 135.023C171.197 134.204 172.075 133.379 172.58 132.747C172.831 132.431 172.989 132.165 173.085 131.973C173.111 131.921 173.132 131.874 173.15 131.833Z" stroke="#A38071" stroke-width="0.5"/>
</g>
<path d="M187.087 163.975C185.949 158.975 183.087 160.974 181.587 156.974C179.849 152.339 185.627 148.113 185.087 146.474C184.381 144.331 178.587 152.475 179.087 155.974C179.342 157.759 180.587 159.974 184.087 164.474C186.242 167.245 180.587 166.474 180.587 170.974C180.587 175.474 175.545 176.293 177.087 180.974C177.418 184.451 180.634 188.152 181.587 191.474C182.586 194.958 177.058 197.11 178.587 200.474C181.087 205.974 183.587 205.474 185.087 209.474C186.587 213.474 189.299 217.328 188.587 209.474C188.218 205.405 180.761 203.183 181.587 199.474C182.292 196.31 186.294 194.565 186.087 191.474C185.856 188.034 182.21 182.866 181.587 180.974C179.618 177.472 185.587 179.974 184.087 173.974C182.587 167.974 189.007 172.409 187.087 163.975Z" fill="#502811"/>
<path d="M199.275 187.304C198.948 188.393 191.795 190.801 194.72 199.089C199.275 211.995 203.159 212.274 202.817 209.751C201.299 198.528 199.275 206.384 197.756 196.844C196.945 191.749 203.911 193.404 204.842 186.182C205.348 182.254 204.842 178.326 200.287 173.836C195.732 169.347 190.826 165.69 194.72 159.246C198.534 152.933 199.662 154.08 201.299 149.707C203.073 144.968 195.821 140.404 198.769 135.241C201.716 130.078 198.263 132.996 198.769 125.701C198.769 119.809 200.227 122.434 202.441 115.286C204.999 107.025 198.769 103.255 197.529 98.2044C197.28 97.191 194.254 85.339 194.254 85.339C194.254 80.5626 190.724 89.3924 193.708 98.7655C196.744 108.305 199.453 108.84 197.529 112.795C193.708 120.651 197.562 123.692 194.72 126.262C190.791 132.762 196.417 140.465 196.744 147.025C197.071 153.586 188.736 148.802 190.165 160.368C190.728 164.925 192.071 169.182 193.708 173.275C195.345 177.369 202.873 175.327 199.275 187.304Z" fill="#69391D"/>
<path d="M205.275 189.304C204.948 190.393 197.795 192.801 200.72 201.089C205.275 213.995 209.159 214.274 208.817 211.751C207.299 200.528 205.275 208.384 203.756 198.844C202.945 193.749 209.911 195.404 210.842 188.182C211.348 184.254 210.842 180.326 206.287 175.836C201.732 171.347 196.826 167.69 200.72 161.246C204.534 154.933 205.662 156.08 207.299 151.707C209.073 146.968 201.821 142.404 204.769 137.241C207.716 132.078 204.263 134.996 204.769 127.701C204.769 121.809 206.227 124.434 208.441 117.286C210.999 109.025 204.769 105.255 203.529 100.204C203.28 99.191 200.254 87.339 200.254 87.339C200.254 82.5626 196.724 91.3924 199.708 100.766C202.744 110.305 205.453 110.84 203.529 114.795C199.708 122.651 203.562 125.692 200.72 128.262C196.791 134.762 202.417 142.465 202.744 149.025C203.071 155.586 194.736 150.802 196.165 162.368C196.728 166.925 198.071 171.182 199.708 175.275C201.345 179.369 208.873 177.327 205.275 189.304Z" fill="#B26539"/>
<path d="M125.772 125C125.772 125 126.291 126.158 127.544 126.983C130.915 129.202 138.9 133.296 151.934 133.296C169.812 133.296 174.797 125.593 174.797 125.593C175.102 125.621 175.846 126.071 175.979 129.148C176.184 133.889 174.84 135.074 174.84 135.074C174.84 135.074 165.342 141 151.934 141C138.526 141 125.676 135.074 125.676 135.074C125.676 135.074 124 135.074 124 130.333C124 125.593 125.772 125 125.772 125Z" fill="#A38071"/>
<path d="M174.691 133.242L174.688 133.243C174.67 133.253 174.644 133.269 174.608 133.289C174.537 133.328 174.43 133.387 174.288 133.462C174.005 133.613 173.586 133.828 173.039 134.087C171.947 134.604 170.349 135.295 168.334 135.986C164.303 137.368 158.604 138.75 151.934 138.75C145.262 138.75 138.722 137.367 133.845 135.982C131.408 135.289 129.389 134.597 127.98 134.078C127.275 133.818 126.723 133.602 126.348 133.451C126.16 133.376 126.016 133.316 125.92 133.276C125.872 133.256 125.835 133.241 125.811 133.23L125.784 133.219L125.777 133.216L125.776 133.215L125.728 133.194H125.681C125.68 133.194 125.68 133.194 125.679 133.194C125.675 133.194 125.665 133.193 125.651 133.19C125.622 133.185 125.575 133.173 125.515 133.146C125.398 133.094 125.222 132.983 125.038 132.738C124.666 132.245 124.25 131.198 124.25 129C124.25 126.809 124.687 125.61 125.097 124.968C125.302 124.647 125.502 124.461 125.643 124.358C125.653 124.35 125.664 124.343 125.674 124.336C125.746 124.455 125.851 124.613 125.991 124.793C126.291 125.179 126.755 125.666 127.413 126.072C130.818 128.173 138.848 132.028 151.934 132.028C160.907 132.028 166.664 130.215 170.185 128.389C171.945 127.476 173.145 126.56 173.907 125.869C174.288 125.524 174.56 125.234 174.737 125.03C174.799 124.958 174.85 124.896 174.89 124.846C174.977 124.898 175.101 125.012 175.23 125.264C175.447 125.688 175.663 126.473 175.729 127.9C175.83 130.097 175.548 131.451 175.252 132.246C175.104 132.643 174.952 132.902 174.842 133.057C174.788 133.135 174.743 133.187 174.714 133.218C174.705 133.228 174.697 133.236 174.691 133.242Z" fill="#FFF1CC"/>
<path d="M125.776 133.215L125.777 133.216L125.784 133.219L125.811 133.23C125.835 133.241 125.872 133.256 125.92 133.276C126.016 133.316 126.16 133.376 126.348 133.451C126.723 133.602 127.275 133.818 127.98 134.078C129.389 134.597 131.408 135.289 133.845 135.982C138.722 137.367 145.262 138.75 151.934 138.75C158.604 138.75 164.303 137.368 168.334 135.986C170.349 135.295 171.947 134.604 173.039 134.087C173.586 133.828 174.005 133.613 174.288 133.462C174.43 133.387 174.537 133.328 174.608 133.289C174.644 133.269 174.67 133.253 174.688 133.243L174.691 133.242C174.697 133.236 174.705 133.228 174.714 133.218C174.743 133.187 174.788 133.135 174.842 133.057C174.952 132.902 175.104 132.643 175.252 132.246C175.548 131.451 175.83 130.097 175.729 127.9C175.663 126.473 175.447 125.688 175.23 125.264C175.101 125.012 174.977 124.898 174.89 124.846C174.85 124.896 174.799 124.958 174.737 125.03C174.56 125.234 174.288 125.524 173.907 125.869C173.145 126.56 171.945 127.476 170.185 128.389C166.664 130.215 160.907 132.028 151.934 132.028C138.848 132.028 130.818 128.173 127.413 126.072C126.755 125.666 126.291 125.179 125.991 124.793C125.851 124.613 125.746 124.455 125.674 124.336C125.664 124.343 125.653 124.35 125.643 124.358C125.502 124.461 125.302 124.647 125.097 124.968C124.687 125.61 124.25 126.809 124.25 129C124.25 131.198 124.666 132.245 125.038 132.738C125.222 132.983 125.398 133.094 125.515 133.146C125.575 133.173 125.622 133.185 125.651 133.19C125.665 133.193 125.675 133.194 125.679 133.194C125.68 133.194 125.68 133.194 125.681 133.194H125.728L125.776 133.215ZM125.776 133.215L125.676 133.444" stroke="#A38071" stroke-width="0.5"/>
<path d="M136.886 83.0012L137.058 83.4178C137.491 84.4644 136.958 85.5702 136 85.6136" stroke="#B22F2F" stroke-width="0.8" stroke-linecap="round"/>
<path d="M163.101 83L162.936 83.4481C162.581 84.4137 162.878 85.4159 163.638 85.8227" stroke="#B22F2F" stroke-width="0.8" stroke-linecap="round"/>
<path d="M137.932 84.7381C137.855 84.6736 137.789 84.617 137.734 84.5704C137.738 84.5699 137.741 84.5695 137.744 84.5691C137.893 84.5502 138.109 84.5233 138.377 84.4918C138.913 84.4288 139.657 84.3471 140.491 84.2725C142.161 84.123 144.183 84.0025 145.609 84.1144C146.946 84.2193 147.815 84.5958 148.438 84.9412C148.594 85.0279 148.735 85.1128 148.865 85.1917C148.877 85.1993 148.89 85.2068 148.902 85.2142C149.017 85.2843 149.125 85.3497 149.226 85.4057C149.446 85.528 149.652 85.6165 149.859 85.6058C150.139 85.5913 150.417 85.4838 150.702 85.3395C150.874 85.2527 151.056 85.1485 151.245 85.0399C151.367 84.9699 151.493 84.8981 151.621 84.8279C152.282 84.4651 153.064 84.1148 154.09 84.1148C155.494 84.1148 157.59 84.3601 159.34 84.6064C160.214 84.7294 161 84.8525 161.567 84.9448C161.829 84.9874 162.045 85.0235 162.201 85.0499L162.016 85.1512C161.742 85.3013 161.357 85.5127 160.913 85.7578C160.025 86.248 158.899 86.8732 157.951 87.4131C157.889 87.4483 157.828 87.483 157.768 87.5174C156.265 88.3732 155.185 88.9884 154.056 89.3793C152.886 89.7844 151.661 89.9493 149.857 89.8795C146.807 89.7614 145.425 89.0565 143.575 88.1133C142.846 87.7414 142.045 87.3325 141.039 86.9079C140.413 86.6433 139.548 86.0263 138.832 85.4684C138.476 85.1906 138.159 84.9297 137.932 84.7381Z" fill="#F05A50" stroke="#B22F2F" stroke-width="0.2"/>
<path d="M137.945 84.8462C138.074 84.913 138.227 84.9908 138.398 85.0772C138.983 85.3716 139.792 85.7661 140.692 86.1668C141.591 86.5674 142.581 86.9745 143.528 87.2936C144.473 87.6123 145.38 87.8454 146.111 87.8941C147.459 87.9839 148.336 88.149 148.965 88.2876C149.091 88.3156 149.209 88.3428 149.319 88.3682C149.48 88.4054 149.625 88.4387 149.755 88.4647C149.976 88.5091 150.169 88.5353 150.358 88.527C150.771 88.5088 151.195 88.4063 151.674 88.2908C151.809 88.2581 151.949 88.2243 152.095 88.1911C152.758 88.0395 153.55 87.8943 154.59 87.8943C154.779 87.8943 155.045 87.8481 155.359 87.7714C155.675 87.6942 156.047 87.5842 156.452 87.4528C157.263 87.19 158.209 86.8399 159.111 86.4904C160.012 86.1407 160.87 85.7911 161.501 85.529C161.806 85.4027 162.058 85.2967 162.237 85.2207C162.178 85.3099 162.105 85.4185 162.02 85.5426C161.768 85.909 161.41 86.4108 160.984 86.9529C160.131 88.0402 159.015 89.2772 157.949 89.9142C154.937 91.7139 151.98 92.7607 149.515 92.401C147.841 92.1568 147.004 91.9513 146.199 91.6018C145.69 91.3807 145.195 91.1031 144.512 90.7196C144.105 90.4914 143.631 90.2256 143.048 89.9119C142.766 89.7606 142.285 89.3475 141.711 88.8001C141.142 88.2564 140.493 87.5901 139.88 86.9428C139.267 86.2957 138.691 85.6684 138.268 85.2027C138.147 85.0695 138.038 84.9496 137.945 84.8462Z" fill="#FA7171" stroke="#D54646" stroke-width="0.2"/>
<path d="M153.607 88.2687C153.907 88.4308 154.142 88.6072 154.314 88.8505C154.663 89.3443 154.675 90.04 154.499 90.828" stroke="#EA6161" stroke-width="0.1"/>
<path d="M146.409 88.2592C146.109 88.4213 145.874 88.5977 145.702 88.841C145.353 89.3348 145.341 90.0305 145.517 90.8185" stroke="#EA6161" stroke-width="0.1"/>
<path d="M153.087 88.2183C153.343 88.3631 153.544 88.5193 153.692 88.7326C153.992 89.1653 154.009 89.7679 153.868 90.4477" stroke="#EA6161" stroke-width="0.1"/>
<path d="M147.216 88.2183C146.96 88.3631 146.759 88.5193 146.611 88.7326C146.311 89.1653 146.294 89.7679 146.435 90.4477" stroke="#EA6161" stroke-width="0.1"/>
<path d="M164.245 53.4899C166.377 52.0092 169.266 51.5535 169.602 51.552C170.602 51.5474 173.76 52.1798 176.187 53.4874C178.201 54.5726 181 57.4372 181 57.4372C181 57.4372 177.099 61.6255 174.161 62.6684C170.7 63.8969 168.655 62.7556 165.26 61.194C162.527 59.9366 160.056 58.7227 160.056 57.3687C160.056 56.0148 162.849 54.4595 164.245 53.4899Z" fill="#ED9D71"/>
<path d="M163.237 55.3687C165.506 53.9687 166.222 53.8066 168.531 53.1592C170.043 52.7351 173.068 53.1591 175.337 54.6687C177.199 55.9076 178.363 57.4457 178.363 57.4457C178.363 57.4457 175.914 60.5416 172.93 61.2944C169.415 62.1812 166.262 61.6688 163.89 60.2301C161.427 58.7362 160.212 57.9246 160.211 57.4687C160.211 57.0128 161.398 56.5031 163.237 55.3687Z" fill="white"/>
<path d="M170.447 61.5694C172.76 61.5694 174.636 59.6154 174.636 57.205C174.636 54.7947 172.76 52.8407 170.447 52.8407C168.134 52.8407 166.258 54.7947 166.258 57.205C166.258 59.6154 168.134 61.5694 170.447 61.5694Z" fill="#512710"/>
<path d="M169.985 60.2776C171.528 60.2776 172.778 58.9749 172.778 57.368C172.778 55.7611 171.528 54.4585 169.985 54.4585C168.443 54.4585 167.193 55.7611 167.193 57.368C167.193 58.9749 168.443 60.2776 169.985 60.2776Z" fill="#1A1A1A"/>
<path d="M169.438 58.1752C169.824 58.1752 170.136 57.8496 170.136 57.4478C170.136 57.0461 169.824 56.7205 169.438 56.7205C169.053 56.7205 168.74 57.0461 168.74 57.4478C168.74 57.8496 169.053 58.1752 169.438 58.1752Z" fill="white"/>
<path d="M179.509 58.0277C179.017 58.5403 177.027 60.6148 173.924 61.9076C172.746 62.175 170.882 63.2151 169.654 63.1999C167.305 63.1709 162.635 60.6305 160.893 59.3211C159.021 57.9149 160.673 56.7205 160.673 56.7205L161.914 58.0139C161.914 58.0139 165.775 61.3727 170.352 61.3727C174.54 61.3727 178.889 57.3811 178.889 57.3811C178.889 57.3811 180.13 57.3813 179.509 58.0277Z" fill="#DA9772"/>
<path d="M160.053 58.0138C160.325 56.9511 161.297 56.0786 164.4 54.1387C165.641 53.3627 168.123 52.1986 169.985 52.1986C175.574 52.2035 178.804 56.3226 179.759 57.368C180.492 58.1718 178.327 57.368 178.327 57.368C178.327 57.368 173.019 53.2566 168.589 54.4584C165.017 55.4272 161.914 58.0138 161.914 58.0138C161.914 58.0138 159.973 58.3258 160.053 58.0138Z" fill="#BF8565"/>
<g filter="url(#filter4_d_3245_169)">
<path d="M170.549 53.4919V50" stroke="black" stroke-linecap="round"/>
</g>
<path d="M168.067 54.1387L167.054 51.0767" stroke="black" stroke-linecap="round"/>
<path d="M174.834 50.9539L173.081 54.1175" stroke="black" stroke-linecap="round"/>
<g filter="url(#filter5_d_3245_169)">
<path d="M161.862 58.0186C161.862 58.0186 166.858 54.1413 170.55 54.1386C173.925 54.1362 178.617 57.3719 178.617 57.3719" stroke="#110E0B" stroke-width="0.7" stroke-linecap="round"/>
</g>
<path d="M137.755 53.4899C135.623 52.0092 132.734 51.5535 132.398 51.552C131.398 51.5474 128.24 52.1798 125.813 53.4874C123.799 54.5726 121 57.4372 121 57.4372C121 57.4372 124.901 61.6255 127.839 62.6684C131.3 63.8969 133.345 62.7556 136.74 61.194C139.473 59.9366 141.944 58.7227 141.944 57.3687C141.944 56.0148 139.151 54.4595 137.755 53.4899Z" fill="#ED9D71"/>
<path d="M138.763 55.3687C136.494 53.9687 135.778 53.8066 133.469 53.1592C131.957 52.7351 128.932 53.1591 126.663 54.6687C124.801 55.9076 123.637 57.4457 123.637 57.4457C123.637 57.4457 126.086 60.5416 129.07 61.2944C132.585 62.1812 135.738 61.6688 138.11 60.2301C140.573 58.7362 141.788 57.9246 141.789 57.4687C141.789 57.0128 140.602 56.5031 138.763 55.3687Z" fill="white"/>
<path d="M131.553 61.5694C129.24 61.5694 127.364 59.6154 127.364 57.205C127.364 54.7947 129.24 52.8407 131.553 52.8407C133.866 52.8407 135.742 54.7947 135.742 57.205C135.742 59.6154 133.866 61.5694 131.553 61.5694Z" fill="#512710"/>
<path d="M130.792 60.3191C129.25 60.3191 128 59.0165 128 57.4095C128 55.8026 129.25 54.5 130.792 54.5C132.335 54.5 133.585 55.8026 133.585 57.4095C133.585 59.0165 132.335 60.3191 130.792 60.3191Z" fill="#1A1A1A"/>
<path d="M130.102 58.4548C129.716 58.4548 129.404 58.1291 129.404 57.7274C129.404 57.3257 129.716 57 130.102 57C130.487 57 130.8 57.3257 130.8 57.7274C130.8 58.1291 130.487 58.4548 130.102 58.4548Z" fill="white"/>
<path d="M122.491 58.0277C122.983 58.5403 124.973 60.6148 128.076 61.9076C129.254 62.175 131.118 63.2151 132.346 63.1999C134.695 63.1709 139.365 60.6305 141.107 59.3211C142.979 57.9149 141.327 56.7205 141.327 56.7205L140.086 58.0139C140.086 58.0139 136.225 61.3727 131.648 61.3727C127.46 61.3727 123.111 57.3811 123.111 57.3811C123.111 57.3811 121.87 57.3813 122.491 58.0277Z" fill="#DA9772"/>
<path d="M141.947 58.0138C141.675 56.9511 140.703 56.0786 137.6 54.1387C136.359 53.3627 133.877 52.1986 132.015 52.1986C126.426 52.2035 123.196 56.3226 122.241 57.368C121.508 58.1718 123.673 57.368 123.673 57.368C123.673 57.368 128.981 53.2566 133.411 54.4584C136.983 55.4272 140.086 58.0138 140.086 58.0138C140.086 58.0138 142.027 58.3258 141.947 58.0138Z" fill="#BF8565"/>
<g filter="url(#filter6_d_3245_169)">
<path d="M131.451 53.4919V50" stroke="black" stroke-linecap="round"/>
</g>
<path d="M133.933 54.1387L134.946 51.0767" stroke="black" stroke-linecap="round"/>
<path d="M127.166 50.9539L128.919 54.1175" stroke="black" stroke-linecap="round"/>
<g filter="url(#filter7_d_3245_169)">
<path d="M140.138 58.0186C140.138 58.0186 135.142 54.1413 131.45 54.1386C128.075 54.1362 123.383 57.3719 123.383 57.3719" stroke="#110E0B" stroke-width="0.7" stroke-linecap="round"/>
</g>
<path d="M113.538 72.1731C112.912 72.5568 112.238 72.8589 111.535 73.072C107.75 74.2798 105.032 68.5071 103.953 63.0056C102.873 57.5041 102.558 50.2572 106.453 49.5056C108.546 49.1025 110.38 54.1136 112.39 55.8548C112.257 61.3172 112.641 66.7809 113.538 72.1731Z" fill="#F69475"/>
<path d="M109.334 68.6221C107.352 64.847 109.287 60.043 109.784 58.9468C109.553 58.4418 109.273 58.0137 108.961 57.6894C108.649 57.3652 108.312 57.1518 107.972 57.0628C106.622 56.7889 105.535 58.843 105.522 58.8444L105.202 58.2999C105.252 58.2045 106.416 56.007 107.953 56.3111C108.38 56.4228 108.803 56.6995 109.192 57.1218C109.58 57.5441 109.925 58.1018 110.201 58.7559L110.321 59.0179L110.208 59.2327C110.186 59.2876 107.646 64.4093 109.612 68.1489L109.334 68.6221Z" fill="#F05A50"/>
<path d="M172.52 98.8499L184.009 82C184.009 82 208.485 128.465 210.983 172.887C211.99 190.804 169.023 235.181 166.026 172.887C165.52 162.373 172.52 98.8499 172.52 98.8499Z" fill="#743F21"/>
<path d="M173.52 121.85L185.009 105C185.009 105 222.003 132.078 224.5 176.5C225.507 194.417 170.023 258.181 167.026 195.887C166.52 185.373 173.52 121.85 173.52 121.85Z" fill="#743F21"/>
<path d="M99.0853 105.179L109.808 86C109.808 86 132.313 182 129.5 197C128 205 122.5 261.5 93.0245 189.449C88.4899 178.364 99.0853 105.179 99.0853 105.179Z" fill="#743F21"/>
<path d="M207.384 186.616C205.342 213.757 202.232 193.757 188.456 217.569C183.984 225.301 177 222.808 177 226.141C177 230.502 192.376 227.57 198.916 213.283C202.404 205.664 209.679 206.882 210.871 186.616C211.269 179.852 211.369 162.329 201.407 157.567C197.976 155.927 189.508 148.843 195.43 140.423C201.232 132.175 202.901 134.709 205.392 128.994C208.09 122.803 202.403 118.12 206.886 111.374C211.369 104.628 194.932 97.9615 194.433 92.8021C194.433 85.1037 204.017 84.5221 207.384 75.1823C211.274 64.3891 207.234 58.8836 205.391 57.5624C204.24 56.7374 203.649 34.7718 194.932 36.054C188.456 37.0064 202.331 56.1338 200.41 68.9915C199.102 77.7442 187.46 87.0086 186.463 92.8021C185.264 99.7726 202.242 108.016 197.92 111.374C191.943 119.867 199.415 118.517 199.913 127.089C200.411 135.661 187.28 130.072 189.453 145.185C190.308 151.138 191.922 155.712 195.43 159.472C211.867 177.091 208.636 169.974 207.384 186.616Z" fill="#B7724B"/>
<path d="M175.34 178.781C176.661 195.321 178.674 183.133 187.587 197.644C190.481 202.355 195 200.836 195 202.867C195 205.525 185.05 203.738 180.819 195.032C178.562 190.389 173.855 191.131 173.084 178.781C172.826 174.66 172.761 163.982 179.207 161.08C181.427 160.08 186.907 155.763 183.075 150.633C179.321 145.607 178.24 147.151 176.629 143.668C174.883 139.895 178.563 137.042 175.662 132.931C172.761 128.82 183.397 124.758 183.72 121.614C183.72 116.923 177.519 116.568 175.34 110.877C172.822 104.3 175.437 100.945 176.629 100.14C177.374 99.6368 177.756 86.2516 183.397 87.0329C187.587 87.6133 178.609 99.2691 179.852 107.104C180.698 112.438 188.232 118.083 188.877 121.614C189.653 125.861 178.667 130.885 181.464 132.931C185.331 138.107 180.496 137.284 180.174 142.508C179.852 147.731 188.348 144.325 186.942 153.535C186.389 157.162 185.344 159.949 183.075 162.241C172.439 172.978 174.529 168.641 175.34 178.781Z" fill="#B7724B"/>
<path d="M115.372 195.799C115.695 196.769 114.443 198.299 119.254 204.603C122.851 209.315 107 219.116 107 221.389C107 224.363 119.62 216.024 115.372 206.281C113.106 201.085 113.023 203.484 110.513 192.442C109.495 187.962 112.783 185.147 119.254 181.9C121.483 180.782 126.983 175.951 123.136 170.209C119.368 164.584 118.283 166.312 116.666 162.415C114.913 158.193 118.607 155 115.695 150.4C112.783 145.8 123.46 141.253 123.784 137.735C123.784 132.485 117.559 132.089 115.372 125.72C112.845 118.359 115.469 114.605 116.666 113.704C117.414 113.141 117.797 98.1624 123.46 99.0368C127.666 99.6863 118.653 112.73 119.901 121.498C120.751 127.467 128.313 133.784 128.96 137.735C129.74 142.488 118.711 148.11 121.519 150.4C125.401 156.192 120.548 155.271 120.225 161.116C119.901 166.962 128.99 165.35 127.578 175.656C127.023 179.715 124.754 179.551 123.136 183.199C121.519 186.847 111.817 185.127 115.372 195.799Z" fill="#915331"/>
<path d="M198.372 176.799C198.695 177.769 197.443 179.299 202.254 185.603C205.851 190.315 190 200.116 190 202.389C190 205.363 202.62 197.024 198.372 187.281C196.106 182.085 196.023 184.484 193.513 173.442C192.495 168.962 195.783 166.147 202.254 162.9C204.483 161.782 209.983 156.951 206.136 151.209C202.368 145.584 201.283 147.312 199.666 143.415C197.913 139.193 201.607 136 198.695 131.4C195.783 126.8 206.46 122.253 206.784 118.735C206.784 113.485 200.559 113.089 198.372 106.72C195.845 99.3594 198.469 95.605 199.666 94.7041C200.414 94.1414 200.797 79.1624 206.46 80.0368C210.666 80.6863 201.653 93.7298 202.901 102.498C203.751 108.467 211.313 114.784 211.96 118.735C212.74 123.488 201.711 129.11 204.519 131.4C208.401 137.192 203.548 136.271 203.225 142.116C202.901 147.962 211.99 146.35 210.578 156.656C210.023 160.715 207.754 160.551 206.136 164.199C204.519 167.847 194.817 166.127 198.372 176.799Z" fill="#915331"/>
<path d="M181.628 195.799C181.305 196.769 182.557 198.299 177.746 204.603C174.149 209.315 190 219.116 190 221.389C190 224.363 177.38 216.024 181.628 206.281C183.894 201.085 183.977 203.484 186.487 192.442C187.505 187.962 184.217 185.147 177.746 181.9C175.517 180.782 170.017 175.951 173.864 170.209C177.632 164.584 178.717 166.312 180.334 162.415C182.087 158.193 178.393 155 181.305 150.4C184.217 145.8 173.54 141.253 173.216 137.735C173.216 132.485 179.441 132.089 181.628 125.72C184.155 118.359 181.531 114.605 180.334 113.704C179.586 113.141 179.203 98.1624 173.54 99.0368C169.334 99.6863 178.347 112.73 177.099 121.498C176.249 127.467 168.687 133.784 168.04 137.735C167.26 142.488 178.289 148.11 175.481 150.4C171.599 156.192 176.452 155.271 176.775 161.116C177.099 166.962 168.01 165.35 169.422 175.656C169.977 179.715 172.246 179.551 173.864 183.199C175.481 186.847 185.183 185.127 181.628 195.799Z" fill="#693D24"/>
<path d="M193.275 204.304C192.948 205.393 185.795 207.801 188.72 216.089C193.275 228.995 197.159 229.274 196.817 226.751C195.299 215.528 193.275 223.384 191.756 213.844C190.945 208.749 197.911 210.404 198.842 203.182C199.348 199.254 198.842 195.326 194.287 190.836C189.732 186.347 184.826 182.69 188.72 176.246C192.534 169.933 193.662 171.08 195.299 166.707C197.073 161.968 189.821 157.404 192.769 152.241C195.716 147.078 192.263 149.996 192.769 142.701C192.769 136.809 194.227 139.434 196.441 132.286C198.999 124.025 192.769 120.255 191.529 115.204C191.28 114.191 188.254 102.339 188.254 102.339C188.254 97.5626 184.724 106.392 187.708 115.766C190.744 125.305 193.453 125.84 191.529 129.795C187.708 137.651 191.562 140.692 188.72 143.262C184.791 149.762 190.417 157.465 190.744 164.025C191.071 170.586 182.736 165.802 184.165 177.368C184.728 181.925 186.071 186.182 187.708 190.275C189.345 194.369 196.873 192.327 193.275 204.304Z" fill="#B26539"/>
<path d="M189.372 167.622C189.695 168.821 188.443 170.711 193.254 178.501C196.851 184.325 181 196.436 181 199.245C181 202.92 193.62 192.615 189.372 180.575C187.106 174.154 187.023 177.118 184.513 163.473C183.495 157.937 186.783 154.459 193.254 150.446C195.483 149.063 200.983 143.094 197.136 135.998C193.368 129.047 192.283 131.183 190.666 126.367C188.913 121.149 192.607 117.203 189.695 111.519C186.783 105.834 197.46 100.216 197.784 95.8676C197.784 89.3802 191.559 88.89 189.372 81.0193C186.845 71.9238 189.469 67.2842 190.666 66.1709C191.414 65.4756 191.797 46.965 197.46 48.0455C201.666 48.8481 192.653 64.9669 193.901 75.8023C194.751 83.1782 202.313 90.9854 202.96 95.8676C203.74 101.742 192.711 108.689 195.519 111.519C199.401 118.676 194.548 117.538 194.225 124.762C193.901 131.985 202.99 129.993 201.578 142.729C201.023 147.746 198.754 147.543 197.136 152.051C195.519 156.558 185.817 154.433 189.372 167.622Z" fill="#693D24"/>
<path d="M102.372 171.799C102.695 172.769 101.443 174.299 106.254 180.603C109.851 185.315 94 195.116 94 197.389C94 200.363 106.62 192.024 102.372 182.281C100.106 177.085 100.023 179.484 97.5133 168.442C96.4951 163.962 99.7832 161.147 106.254 157.9C108.483 156.782 113.983 151.951 110.136 146.209C106.368 140.584 105.283 142.312 103.666 138.415C101.913 134.193 105.607 131 102.695 126.4C99.7832 121.8 110.46 117.253 110.784 113.735C110.784 108.485 104.559 108.089 102.372 101.72C99.8446 94.3594 102.469 90.605 103.666 89.7041C104.414 89.1414 104.797 74.1624 110.46 75.0368C114.666 75.6863 105.653 88.7298 106.901 97.4979C107.751 103.467 115.313 109.784 115.96 113.735C116.74 118.488 105.711 124.11 108.519 126.4C112.401 132.192 107.548 131.271 107.225 137.116C106.901 142.962 115.99 141.35 114.578 151.656C114.023 155.715 111.754 155.551 110.136 159.199C108.519 162.847 98.8168 161.127 102.372 171.799Z" fill="#915331"/>
<path d="M129.243 5.14551L133.146 20.7575" stroke="#F7AD83" stroke-width="0.4" stroke-linecap="round"/>
<g filter="url(#filter8_f_3245_169)">
<path d="M190 54.5001C187.95 26.0025 186.328 44.0021 172.5 19C168.01 10.8823 144.5 11.5001 144.5 8.00006C144.5 3.42126 174.935 6.49991 181.5 21.5C185.001 29.5001 197.804 29.221 199 50.5001C199.399 57.6014 217 70.9999 205.5 87C194 103 211.5 106.5 211.5 116.5C212.691 123.409 207.292 126.993 207.5 134C207.718 141.347 212.772 139.856 214.5 147C219.06 165.85 205.5 207.5 201.5 206C197.5 204.5 214.744 187.585 212 172C210.578 163.924 209.497 154.621 206.5 148C203.943 142.349 200.187 140.088 199 134C197.679 127.224 201.5 120.54 201.5 116.5C202.693 108.5 184.452 100.084 193 90.5C209.5 71.9999 191.257 71.9727 190 54.5001Z" fill="#743F21"/>
</g>
<path d="M104.087 88.9745C102.949 83.9745 100.087 85.9745 98.587 81.9742C96.849 77.3394 102.627 73.113 102.087 71.4745C101.381 69.331 95.5868 77.4748 96.0868 80.9745C96.3417 82.7593 97.5868 84.9745 101.087 89.4745C103.242 92.2449 97.5868 91.4745 97.5868 95.9745C97.5868 100.474 92.5444 101.293 94.0868 105.974C94.418 109.451 97.6339 113.152 98.5868 116.474C99.5858 119.958 94.0575 122.11 95.5868 125.474C98.0868 130.974 100.587 130.474 102.087 134.474C103.587 138.474 106.299 142.328 105.587 134.474C105.218 130.405 97.7606 128.183 98.5868 124.474C99.2919 121.31 103.294 119.565 103.087 116.474C102.856 113.034 99.2098 107.866 98.5868 105.974C96.6177 102.472 102.587 104.974 101.087 98.9745C99.5868 92.9745 106.007 97.4095 104.087 88.9745Z" fill="#A25F39"/>
<path d="M202.087 153.975C200.949 148.975 198.087 150.974 196.587 146.974C194.849 142.339 200.627 138.113 200.087 136.474C199.381 134.331 193.587 142.475 194.087 145.974C194.342 147.759 195.587 149.974 199.087 154.474C201.242 157.245 195.587 156.474 195.587 160.974C195.587 165.474 190.545 166.293 192.087 170.974C192.418 174.451 195.634 178.152 196.587 181.474C197.586 184.958 192.058 187.11 193.587 190.474C196.087 195.974 198.587 195.474 200.087 199.474C201.587 203.474 204.299 207.328 203.587 199.474C203.218 195.405 195.761 193.183 196.587 189.474C197.292 186.31 201.294 184.565 201.087 181.474C200.856 178.034 197.21 172.866 196.587 170.974C194.618 167.472 200.587 169.974 199.087 163.974C197.587 157.974 204.007 162.409 202.087 153.975Z" fill="#8B4924"/>
<path d="M211.087 126.975C209.949 121.975 207.087 123.974 205.587 119.974C203.849 115.339 209.627 111.113 209.087 109.474C208.381 107.331 202.587 115.475 203.087 118.974C203.342 120.759 204.587 122.974 208.087 127.474C210.242 130.245 204.587 129.474 204.587 133.974C204.587 138.474 199.545 139.293 201.087 143.974C201.418 147.451 204.634 151.152 205.587 154.474C206.586 157.958 201.058 160.11 202.587 163.474C205.087 168.974 207.587 168.474 209.087 172.474C210.587 176.474 213.299 180.328 212.587 172.474C212.218 168.405 204.761 166.183 205.587 162.474C206.292 159.31 210.294 157.565 210.087 154.474C209.856 151.034 206.21 145.866 205.587 143.974C203.618 140.472 209.587 142.974 208.087 136.974C206.587 130.974 213.007 135.409 211.087 126.975Z" fill="#A25F39"/>
<path d="M178.275 202.304C177.948 203.393 170.795 205.801 173.72 214.089C178.275 226.995 182.159 227.274 181.817 224.751C180.299 213.528 178.275 221.384 176.756 211.844C175.945 206.749 182.911 208.404 183.842 201.182C184.348 197.254 183.842 193.326 179.287 188.836C174.732 184.347 169.826 180.69 173.72 174.246C177.534 167.933 178.662 169.08 180.299 164.707C182.073 159.968 174.821 155.404 177.769 150.241C180.716 145.078 177.263 147.996 177.769 140.701C177.769 134.809 179.227 137.434 181.441 130.286C183.999 122.025 177.769 118.255 176.529 113.204C176.28 112.191 173.254 100.339 173.254 100.339C173.254 95.5626 169.724 104.392 172.708 113.766C175.744 123.305 178.453 123.84 176.529 127.795C172.708 135.651 176.562 138.692 173.72 141.262C169.791 147.762 175.417 155.465 175.744 162.025C176.071 168.586 167.736 163.802 169.165 175.368C169.728 179.925 171.071 184.182 172.708 188.275C174.345 192.369 181.873 190.327 178.275 202.304Z" fill="#B26539"/>
<path d="M213.103 153.158C213.045 154.581 206.606 158.949 211.483 168.748C219.078 184.008 222.958 183.617 222.013 180.53C217.806 166.796 217.72 176.997 213.921 165.366C211.892 159.155 219.131 159.898 218.297 150.698C217.843 145.694 216.396 140.882 210.838 136.139C205.28 131.396 199.578 127.759 201.842 118.968C204.059 110.356 205.443 111.574 205.992 105.798C206.588 99.5405 198.364 95.217 200.008 88.206C201.652 81.1949 198.968 85.4977 197.7 76.2869C196.274 68.9255 198.341 71.9271 198.785 62.5751C199.297 51.768 192.268 48.242 189.829 42.1676C189.34 40.9488 183.501 26.7161 183.501 26.7161C182.345 20.7484 181.016 32.4518 186.213 43.5954C191.503 54.937 194.291 55.09 193.36 60.3967C191.509 70.9391 196.029 74.0066 193.86 77.7579C191.576 86.6261 198.963 95.1801 200.872 103.315C202.781 111.449 193.44 107.057 197.641 121.237C199.296 126.822 201.645 131.885 204.243 136.689C206.84 141.492 213.738 137.509 213.103 153.158Z" fill="#9C5C37"/>
<g filter="url(#filter9_f_3245_169)">
<path d="M97.2747 180.304C96.9476 181.393 89.7951 183.801 92.7199 192.089C97.2747 204.995 101.159 205.274 100.817 202.751C99.2987 191.528 97.2747 199.384 95.7562 189.844C94.9452 184.749 101.911 186.404 102.842 179.182C103.348 175.254 102.842 171.326 98.287 166.836C93.732 162.347 88.8262 158.69 92.7199 152.246C96.5344 145.933 97.6615 147.08 99.2989 142.707C101.073 137.968 93.8213 133.404 96.7687 128.241C99.7161 123.078 96.2626 125.996 96.7687 118.701C96.7687 112.809 98.2275 115.434 100.441 108.286C102.999 100.025 96.7686 96.2548 95.5291 91.2044C95.2804 90.191 92.2542 78.339 92.2542 78.339C92.2542 73.5626 88.7239 82.3924 91.7075 91.7655C94.7441 101.305 97.453 101.84 95.5292 105.795C91.7075 113.651 95.5619 116.692 92.7199 119.262C88.7905 125.762 94.4165 133.465 94.744 140.025C95.0715 146.586 86.7363 141.802 88.1648 153.368C88.7275 157.925 90.0706 162.182 91.7076 166.275C93.3445 170.369 100.873 168.327 97.2747 180.304Z" fill="#603C27"/>
</g>
<path d="M177.087 123.975C175.949 118.975 173.087 120.974 171.587 116.974C169.849 112.339 175.627 108.113 175.087 106.474C174.381 104.331 168.587 112.475 169.087 115.974C169.342 117.759 170.587 119.974 174.087 124.474C176.242 127.245 170.587 126.474 170.587 130.974C170.587 135.474 165.545 136.293 167.087 140.974C167.418 144.451 170.634 148.152 171.587 151.474C172.586 154.958 167.058 157.11 168.587 160.474C171.087 165.974 173.587 165.474 175.087 169.474C176.587 173.474 179.299 177.328 178.587 169.474C178.218 165.405 170.761 163.183 171.587 159.474C172.292 156.31 176.294 154.565 176.087 151.474C175.856 148.034 172.21 142.866 171.587 140.974C169.618 137.472 175.587 139.974 174.087 133.974C172.587 127.974 179.007 132.409 177.087 123.975Z" fill="#AB7150"/>
<path d="M171.741 197.398C170.578 202.393 167.726 200.378 166.206 204.371C164.445 208.997 170.201 213.252 169.653 214.888C168.936 217.028 163.183 208.855 163.701 205.358C163.965 203.574 165.221 201.366 168.744 196.883C170.912 194.124 165.254 194.866 165.277 190.366C165.299 185.866 160.261 185.022 161.827 180.348C162.176 176.873 165.41 173.189 166.38 169.871C167.397 166.392 161.879 164.213 163.426 160.856C165.953 155.369 168.451 155.881 169.971 151.889C171.491 147.897 174.222 144.057 173.471 151.907C173.081 155.974 165.613 158.159 166.42 161.871C167.11 165.039 171.103 166.804 170.88 169.894C170.632 173.333 166.96 178.483 166.327 180.371C164.34 183.864 170.322 181.391 168.792 187.383C167.261 193.376 173.704 188.973 171.741 197.398Z" fill="#5D3219"/>
<path d="M176.087 162.975C174.949 157.975 172.087 159.974 170.587 155.974C168.849 151.339 174.627 147.113 174.087 145.474C173.381 143.331 167.587 151.475 168.087 154.974C168.342 156.759 169.587 158.974 173.087 163.474C175.242 166.245 169.587 165.474 169.587 169.974C169.587 174.474 164.545 175.293 166.087 179.974C166.418 183.451 169.634 187.152 170.587 190.474C171.586 193.958 166.058 196.11 167.587 199.474C170.087 204.974 172.587 204.474 174.087 208.474C175.587 212.474 178.299 216.328 177.587 208.474C177.218 204.405 169.761 202.183 170.587 198.474C171.292 195.31 175.294 193.565 175.087 190.474C174.856 187.034 171.21 181.866 170.587 179.974C168.618 176.472 174.587 178.974 173.087 172.974C171.587 166.974 178.007 171.409 176.087 162.975Z" fill="#663112"/>
<path d="M103.877 177.204C103.877 184.444 92.9538 185.125 97.949 193.5C105.728 206.543 119.703 203 119.165 200.479C116.773 189.266 112.921 196.953 110.48 187.41C109.176 182.313 121.599 184.32 123.475 177.204C124.495 173.334 128.092 164.71 120.069 160.018C112.045 155.325 108.297 154.73 115.455 148.541C122.467 142.479 119.551 144.741 122.609 140.488C125.923 135.88 113.419 130.824 118.845 125.856C124.272 120.889 126.947 122.67 128.065 115.459C128.236 109.614 117.066 113.722 121.236 106.746C126.056 98.6857 119.816 92.1523 117.744 87.0771C117.328 86.0588 107.45 76.6089 107.45 76.6089C107.589 71.8705 95.6944 82.4088 100.763 91.8638C105.922 101.487 107.435 101.178 103.876 105C96.8066 112.593 112.257 114.83 107.095 117.231C99.8714 123.473 100.674 129.985 101.069 136.51C101.465 143.035 95.7277 139.277 97.949 150.827C98.8239 155.376 91.9854 161.141 94.7969 165.288C97.6084 169.435 103.877 163.682 103.877 177.204Z" fill="#9C5C37"/>
<path d="M100.616 58.1157C102.658 29.1828 105.768 50.5031 119.544 25.1191C124.016 16.8774 131 19.535 131 15.9815C131 11.3328 115.624 14.4586 109.084 29.6878C105.596 37.8101 98.3209 36.5116 97.1292 58.1157C96.7314 65.3255 96.6311 84.0054 106.593 89.0819C110.024 90.8303 118.492 98.3819 112.57 107.357C106.768 116.15 105.099 113.449 102.608 119.54C99.9099 126.141 109.084 132.231 101.114 138.323C98.5487 140.284 110.08 153.552 113.567 158.121C115.416 160.947 103.983 166.948 100.616 176.904C96.7256 188.409 100.766 194.278 102.609 195.687C103.76 196.566 110.827 212.283 119.544 210.916C126.019 209.901 105.669 197.21 107.59 183.503C108.898 174.173 122.637 160.24 121.537 158.121C118.111 151.522 105.758 141.903 110.08 138.323C116.058 136.8 108.585 130.708 108.087 121.571C107.589 112.433 120.72 118.391 118.547 102.281C117.692 95.9347 116.078 91.0593 112.57 87.0513C96.133 68.2686 99.3636 75.8553 100.616 58.1157Z" fill="#B7724B"/>
<path d="M118.275 209.304C117.948 210.393 110.795 212.801 113.72 221.089C118.275 233.995 122.159 234.274 121.817 231.751C120.299 220.528 118.275 228.384 116.756 218.844C115.945 213.749 122.911 215.404 123.842 208.182C124.348 204.254 123.842 200.326 119.287 195.836C114.732 191.347 109.826 187.69 113.72 181.246C117.534 174.933 118.662 176.08 120.299 171.707C122.073 166.968 114.821 162.404 117.769 157.241C120.716 152.078 117.263 154.996 117.769 147.701C117.769 141.809 119.227 144.434 121.441 137.286C123.999 129.025 117.769 125.255 116.529 120.204C116.28 119.191 113.254 107.339 113.254 107.339C113.254 102.563 109.724 111.392 112.708 120.766C115.744 130.305 118.453 130.84 116.529 134.795C112.708 142.651 116.562 145.692 113.72 148.262C109.791 154.762 115.417 162.465 115.744 169.025C116.071 175.586 107.736 170.802 109.165 182.368C109.728 186.925 111.071 191.182 112.708 195.275C114.345 199.369 121.873 197.327 118.275 209.304Z" fill="#B26539"/>
<path d="M128.087 157.975C126.949 152.975 124.087 154.974 122.587 150.974C120.849 146.339 126.627 142.113 126.087 140.474C125.381 138.331 119.587 146.475 120.087 149.974C120.342 151.759 121.587 153.974 125.087 158.474C127.242 161.245 121.587 160.474 121.587 164.974C121.587 169.474 116.545 170.293 118.087 174.974C118.418 178.451 121.634 182.152 122.587 185.474C123.586 188.958 118.058 191.11 119.587 194.474C122.087 199.974 124.587 199.474 126.087 203.474C127.587 207.474 130.299 211.328 129.587 203.474C129.218 199.405 121.761 197.183 122.587 193.474C123.292 190.31 127.294 188.565 127.087 185.474C126.856 182.034 123.21 176.866 122.587 174.974C120.618 171.472 126.587 173.974 125.087 167.974C123.587 161.974 130.007 166.409 128.087 157.975Z" fill="#50260F"/>
<g filter="url(#filter10_f_3245_169)">
<path d="M100.171 67.0427C94.6618 46.0694 99.9395 58.7241 102.522 37.8801C103.361 31.1125 118.975 27.6618 118.143 25.137C117.055 21.8341 96.2234 27.9605 95.7411 40.1143C95.4839 46.5963 89.3519 50.3925 93.6715 65.9853C95.1131 71.1889 83.3912 84.5656 94.2834 93.7716C105.176 102.978 99.2742 108.92 101.651 116.134C102.559 121.36 106.738 122.848 108.276 127.945C109.888 133.289 106.418 133.24 107.05 138.744C108.719 153.268 131.852 200.543 133.962 198.648C136.071 196.754 116.545 168.07 114.533 156.27C113.49 150.156 111.946 143.225 112.22 137.841C112.453 133.245 114.231 130.851 113.516 126.218C112.72 121.062 108.776 117.017 107.816 114.103C105.179 108.574 111.839 99.2498 104.292 94.0726C89.7232 84.0788 103.548 79.902 100.171 67.0427Z" fill="#743F21"/>
</g>
<path d="M115.087 150.975C113.949 145.975 111.087 147.974 109.587 143.974C107.849 139.339 113.627 135.113 113.087 133.474C112.381 131.331 106.587 139.475 107.087 142.974C107.342 144.759 108.587 146.974 112.087 151.474C114.242 154.245 108.587 153.474 108.587 157.974C108.587 162.474 103.545 163.293 105.087 167.974C105.418 171.451 108.634 175.152 109.587 178.474C110.586 181.958 105.058 184.11 106.587 187.474C109.087 192.974 111.587 192.474 113.087 196.474C114.587 200.474 117.299 204.328 116.587 196.474C116.218 192.405 108.761 190.183 109.587 186.474C110.292 183.31 114.294 181.565 114.087 178.474C113.856 175.034 110.21 169.866 109.587 167.974C107.618 164.472 113.587 166.974 112.087 160.974C110.587 154.974 117.007 159.409 115.087 150.975Z" fill="#4A2510"/>
<path d="M106.128 111.959C105.805 110.823 107.057 109.032 102.246 101.652C98.6492 96.135 114.5 84.6613 114.5 82C114.5 78.5184 101.88 88.2813 106.128 99.6869C108.394 105.77 108.477 102.962 110.987 115.889C112.005 121.134 108.717 124.429 102.246 128.231C100.017 129.54 94.517 135.196 98.3637 141.918C102.132 148.503 103.217 146.48 104.834 151.042C106.587 155.985 102.893 159.723 105.805 165.109C108.717 170.495 98.0401 175.817 97.7162 179.936C97.7162 186.082 101.814 183.828 104 191.285C106.528 199.901 105.198 205.445 104 206.5C103.253 207.159 98.6966 213.785 97.7162 210.285C96.5633 206.169 103.248 206.05 102 195.785C101.151 188.797 93.1871 184.562 92.5395 179.936C91.7604 174.371 102.789 167.79 99.9809 165.109C96.0989 158.329 100.952 159.406 101.275 152.563C101.599 145.72 92.5103 147.607 93.9216 135.541C94.4775 130.789 96.7464 130.981 98.3637 126.71C99.9809 122.44 109.683 124.453 106.128 111.959Z" fill="#743F21"/>
<path d="M106.128 111.959C105.805 110.823 107.057 109.032 102.246 101.652C98.6492 96.135 114.5 84.6613 114.5 82C114.5 78.5184 101.88 88.2813 106.128 99.6869C108.394 105.77 108.477 102.962 110.987 115.889C112.005 121.134 108.717 124.429 102.246 128.231C100.017 129.54 94.517 135.196 98.3637 141.918C102.132 148.503 103.217 146.48 104.834 151.042C106.587 155.985 102.893 159.723 105.805 165.109C108.717 170.495 98.0401 175.817 97.7162 179.936C97.7162 186.082 101.814 183.828 104 191.285C106.528 199.901 105.198 205.445 104 206.5C103.253 207.159 98.6966 213.785 97.7162 210.285C96.5633 206.169 103.248 206.05 102 195.785C101.151 188.797 93.1871 184.562 92.5395 179.936C91.7604 174.371 102.789 167.79 99.9809 165.109C96.0989 158.329 100.952 159.406 101.275 152.563C101.599 145.72 92.5103 147.607 93.9216 135.541C94.4775 130.789 96.7464 130.981 98.3637 126.71C99.9809 122.44 109.683 124.453 106.128 111.959Z" fill="#743F21"/>
<path d="M102.372 171.799C102.695 172.769 101.443 174.299 106.254 180.603C109.851 185.315 94 195.116 94 197.389C94 200.363 106.62 192.024 102.372 182.281C100.106 177.085 100.023 179.484 97.5133 168.442C96.4951 163.962 99.7832 161.147 106.254 157.9C108.483 156.782 113.983 151.951 110.136 146.209C106.368 140.584 105.283 142.312 103.666 138.415C101.913 134.193 105.607 131 102.695 126.4C99.7832 121.8 110.46 117.253 110.784 113.735C110.784 108.485 104.559 108.089 102.372 101.72C99.8446 94.3594 102.469 90.605 103.666 89.7041C104.414 89.1414 104.797 74.1624 110.46 75.0368C114.666 75.6863 105.653 88.7298 106.901 97.4979C107.751 103.467 115.313 109.784 115.96 113.735C116.74 118.488 105.711 124.11 108.519 126.4C112.401 132.192 107.548 131.271 107.225 137.116C106.901 142.962 115.99 141.35 114.578 151.656C114.023 155.715 111.754 155.551 110.136 159.199C108.519 162.847 98.8168 161.127 102.372 171.799Z" fill="#915331"/>
<path d="M104.628 193.622C104.305 194.821 105.557 196.711 100.746 204.501C97.1492 210.325 113 222.436 113 225.245C113 228.92 100.38 218.615 104.628 206.575C106.894 200.154 106.977 203.118 109.487 189.473C110.505 183.937 107.217 180.459 100.746 176.446C98.5174 175.063 93.017 169.094 96.8637 161.998C100.632 155.047 101.717 157.183 103.334 152.367C105.087 147.149 101.393 143.203 104.305 137.519C107.217 131.834 96.5401 126.216 96.2162 121.868C96.2162 115.38 102.441 114.89 104.628 107.019C107.155 97.9238 104.531 93.2842 103.334 92.1709C102.586 91.4756 102.203 72.965 96.5401 74.0455C92.3342 74.8481 101.347 90.9669 100.099 101.802C99.2492 109.178 91.6871 116.985 91.0395 121.868C90.2604 127.742 101.289 134.689 98.4809 137.519C94.5989 144.676 99.4519 143.538 99.7755 150.762C100.099 157.985 91.0103 155.993 92.4216 168.729C92.9775 173.746 95.2464 173.543 96.8637 178.051C98.4809 182.558 108.183 180.433 104.628 193.622Z" fill="#693D24"/>
<defs>
<filter id="filter0_f_3245_169" x="8" y="148" width="91.8164" height="107.272" filterUnits="userSpaceOnUse" color-interpolation-filters="sRGB">
<feFlood flood-opacity="0" result="BackgroundImageFix"/>
<feBlend mode="normal" in="SourceGraphic" in2="BackgroundImageFix" result="shape"/>
<feGaussianBlur stdDeviation="1" result="effect1_foregroundBlur_3245_169"/>
</filter>
<filter id="filter1_f_3245_169" x="191.999" y="146" width="79.6631" height="202" filterUnits="userSpaceOnUse" color-interpolation-filters="sRGB">
<feFlood flood-opacity="0" result="BackgroundImageFix"/>
<feBlend mode="normal" in="SourceGraphic" in2="BackgroundImageFix" result="shape"/>
<feGaussianBlur stdDeviation="1" result="effect1_foregroundBlur_3245_169"/>
</filter>
<filter id="filter2_f_3245_169" x="80.2212" y="0.814819" width="143.625" height="213.685" filterUnits="userSpaceOnUse" color-interpolation-filters="sRGB">
<feFlood flood-opacity="0" result="BackgroundImageFix"/>
<feBlend mode="normal" in="SourceGraphic" in2="BackgroundImageFix" result="shape"/>
<feGaussianBlur stdDeviation="1.5" result="effect1_foregroundBlur_3245_169"/>
</filter>
<filter id="filter3_f_3245_169" x="66.2705" y="129.002" width="162.534" height="219.998" filterUnits="userSpaceOnUse" color-interpolation-filters="sRGB">
<feFlood flood-opacity="0" result="BackgroundImageFix"/>
<feBlend mode="normal" in="SourceGraphic" in2="BackgroundImageFix" result="shape"/>
<feGaussianBlur stdDeviation="1" result="effect1_foregroundBlur_3245_169"/>
</filter>
<filter id="filter4_d_3245_169" x="166.049" y="49.5" width="9" height="12.4919" filterUnits="userSpaceOnUse" color-interpolation-filters="sRGB">
<feFlood flood-opacity="0" result="BackgroundImageFix"/>
<feColorMatrix in="SourceAlpha" type="matrix" values="0 0 0 0 0 0 0 0 0 0 0 0 0 0 0 0 0 0 127 0" result="hardAlpha"/>
<feOffset dy="4"/>
<feGaussianBlur stdDeviation="2"/>
<feComposite in2="hardAlpha" operator="out"/>
<feColorMatrix type="matrix" values="0 0 0 0 0 0 0 0 0 0 0 0 0 0 0 0 0 0 0.25 0"/>
<feBlend mode="normal" in2="BackgroundImageFix" result="effect1_dropShadow_3245_169"/>
<feBlend mode="normal" in="SourceGraphic" in2="effect1_dropShadow_3245_169" result="shape"/>
</filter>
<filter id="filter5_d_3245_169" x="153.512" y="53.7886" width="37.4551" height="24.58" filterUnits="userSpaceOnUse" color-interpolation-filters="sRGB">
<feFlood flood-opacity="0" result="BackgroundImageFix"/>
<feColorMatrix in="SourceAlpha" type="matrix" values="0 0 0 0 0 0 0 0 0 0 0 0 0 0 0 0 0 0 127 0" result="hardAlpha"/>
<feOffset dx="2" dy="10"/>
<feGaussianBlur stdDeviation="5"/>
<feComposite in2="hardAlpha" operator="out"/>
<feColorMatrix type="matrix" values="0 0 0 0 0 0 0 0 0 0 0 0 0 0 0 0 0 0 0.25 0"/>
<feBlend mode="normal" in2="BackgroundImageFix" result="effect1_dropShadow_3245_169"/>
<feBlend mode="normal" in="SourceGraphic" in2="effect1_dropShadow_3245_169" result="shape"/>
</filter>
<filter id="filter6_d_3245_169" x="126.951" y="49.5" width="9" height="12.4919" filterUnits="userSpaceOnUse" color-interpolation-filters="sRGB">
<feFlood flood-opacity="0" result="BackgroundImageFix"/>
<feColorMatrix in="SourceAlpha" type="matrix" values="0 0 0 0 0 0 0 0 0 0 0 0 0 0 0 0 0 0 127 0" result="hardAlpha"/>
<feOffset dy="4"/>
<feGaussianBlur stdDeviation="2"/>
<feComposite in2="hardAlpha" operator="out"/>
<feColorMatrix type="matrix" values="0 0 0 0 0 0 0 0 0 0 0 0 0 0 0 0 0 0 0.25 0"/>
<feBlend mode="normal" in2="BackgroundImageFix" result="effect1_dropShadow_3245_169"/>
<feBlend mode="normal" in="SourceGraphic" in2="effect1_dropShadow_3245_169" result="shape"/>
</filter>
<filter id="filter7_d_3245_169" x="115.033" y="53.7886" width="37.4551" height="24.58" filterUnits="userSpaceOnUse" color-interpolation-filters="sRGB">
<feFlood flood-opacity="0" result="BackgroundImageFix"/>
<feColorMatrix in="SourceAlpha" type="matrix" values="0 0 0 0 0 0 0 0 0 0 0 0 0 0 0 0 0 0 127 0" result="hardAlpha"/>
<feOffset dx="2" dy="10"/>
<feGaussianBlur stdDeviation="5"/>
<feComposite in2="hardAlpha" operator="out"/>
<feColorMatrix type="matrix" values="0 0 0 0 0 0 0 0 0 0 0 0 0 0 0 0 0 0 0.25 0"/>
<feBlend mode="normal" in2="BackgroundImageFix" result="effect1_dropShadow_3245_169"/>
<feBlend mode="normal" in="SourceGraphic" in2="effect1_dropShadow_3245_169" result="shape"/>
</filter>
<filter id="filter8_f_3245_169" x="142.5" y="4.04834" width="74.9258" height="203.991" filterUnits="userSpaceOnUse" color-interpolation-filters="sRGB">
<feFlood flood-opacity="0" result="BackgroundImageFix"/>
<feBlend mode="normal" in="SourceGraphic" in2="BackgroundImageFix" result="shape"/>
<feGaussianBlur stdDeviation="1" result="effect1_foregroundBlur_3245_169"/>
</filter>
<filter id="filter9_f_3245_169" x="86" y="75" width="19" height="131" filterUnits="userSpaceOnUse" color-interpolation-filters="sRGB">
<feFlood flood-opacity="0" result="BackgroundImageFix"/>
<feBlend mode="normal" in="SourceGraphic" in2="BackgroundImageFix" result="shape"/>
<feGaussianBlur stdDeviation="1" result="effect1_foregroundBlur_3245_169"/>
</filter>
<filter id="filter10_f_3245_169" x="86.6011" y="21.2501" width="50.52" height="180.453" filterUnits="userSpaceOnUse" color-interpolation-filters="sRGB">
<feFlood flood-opacity="0" result="BackgroundImageFix"/>
<feBlend mode="normal" in="SourceGraphic" in2="BackgroundImageFix" result="shape"/>
<feGaussianBlur stdDeviation="1.5" result="effect1_foregroundBlur_3245_169"/>
</filter>
</defs>
</svg>
