<svg width="149" height="169" viewBox="0 0 149 169" fill="none" xmlns="http://www.w3.org/2000/svg">
<g filter="url(#filter0_f_3212_142)">
<path d="M61.3246 68.1477C66.9387 69.6794 96.0098 95.1751 96.0098 95.1751C96.0098 95.1751 119.923 116.59 122.693 118.593C125.464 120.596 129.252 124.348 132.122 126.392C136.989 129.859 138.058 130.491 139.891 131.885C141.73 133.284 143.747 141.562 140.113 147.397C133.092 158.67 121.193 157.752 117.619 157.233C106.983 155.687 39.8239 96.2727 41.5734 88.469C43.3229 80.6653 55.7106 66.616 61.3246 68.1477Z" fill="#FFF1CC"/>
</g>
<path d="M46.7003 87.5452C46.818 83.928 58.6151 71.1439 64.5286 72.7987C67.1158 73.5227 68.1902 74.8882 68.306 77.5996C68.5707 83.7971 56.1755 93.765 50.2619 92.1102C47.6747 91.3863 46.617 90.1055 46.7003 87.5452Z" fill="#A38071"/>
<g filter="url(#filter1_f_3212_142)">
<path d="M11.1593 45.7611C13.1947 43.7534 21.7768 51.5755 21.7768 51.5755C21.7768 51.5755 29.9584 57.7627 31.0466 57.4127C33.1647 56.7315 29.2697 53.3768 23.8852 45.0068C17.2309 34.663 12.071 29.509 17.1302 28.8942C19.397 28.6187 23.9768 35.7539 27.0246 38.8759C30.1164 42.6557 35.6851 53.1816 37.36 51.4138C38.686 50.0141 37.1213 44.5275 34.3854 37.7793C28.6885 23.7277 25.6871 18.866 30.5666 17.5295C33.6517 16.6845 38.5606 30.9264 40.2384 34.79C42.2213 39.3563 45.822 47.4394 47.2355 47.3556C48.649 47.2718 47.0044 40.9941 45.9383 35.1127C44.8722 29.2313 42.5492 15.4983 46.0329 15.2918C48.8235 15.1264 49.7392 18.1992 49.915 20.8308C50.0909 23.4625 57.286 56.2372 60.1147 56.0695C66.0478 55.7178 65.7657 51.8336 70.2359 48.2039C73.4977 45.5554 78.4999 44.4114 78.4999 44.4114C78.4999 44.4114 84.9812 42.8926 89.1048 43.7828C96.3067 45.3374 81.5918 48.1913 79.6027 50.2908C77.6136 52.3902 69.902 60.4342 69.1699 64.1194C68.1077 69.4665 67.1777 76.7873 67.1777 76.7873C67.1777 76.7873 66.0824 82.6594 57.8952 86.5846C49.7079 90.5098 44.4626 87.3809 44.4626 87.3809C44.4626 87.3809 40.2887 86.8136 37.3566 82.2331C34.4246 77.6527 32.6183 69.1603 28.7835 65.1924C22.2297 58.4111 9.06655 47.8254 11.1593 45.7611Z" fill="#F7AD83"/>
<line x1="0.5" y1="-0.5" x2="27.7618" y2="-0.5" transform="matrix(-0.210673 -0.977556 0.982785 -0.184755 55.7422 47.9268)" stroke="#EC685A" stroke-opacity="0.49" stroke-linecap="round"/>
<line x1="0.5" y1="-0.5" x2="5.7504" y2="-0.5" transform="matrix(0.902222 -0.431272 0.4824 0.875951 60.1021 58.4299)" stroke="#EC685A" stroke-opacity="0.49" stroke-linecap="round"/>
<line x1="0.5" y1="-0.5" x2="27.974" y2="-0.5" transform="matrix(-0.397459 -0.91762 0.935923 -0.352204 45.522 46.5894)" stroke="#EC685A" stroke-opacity="0.49" stroke-linecap="round"/>
<line x1="0.5" y1="-0.5" x2="19.7387" y2="-0.5" transform="matrix(-0.590714 -0.806881 0.844248 -0.535952 36.4077 52.7151)" stroke="#EC685A" stroke-opacity="0.53" stroke-linecap="round"/>
<line x1="0.5" y1="-0.5" x2="13.7106" y2="-0.5" transform="matrix(-0.797996 -0.602663 0.657438 -0.753509 30.2622 58.1917)" stroke="#EC685A" stroke-opacity="0.6" stroke-linecap="round"/>
<path d="M63.8625 79.467C62.0398 82.1436 59.2256 84.0171 54.9907 85.5131C48.3249 86.8828 47.2044 86.1197 44.3574 84.8307C42.2154 83.2129 39.3656 81.5863 39.3458 79.7214C39.7047 77.9633 46.1022 82.0694 52.1153 81.4538C57.3997 80.9128 62.2933 75.5481 63.8213 75.5323C66.2214 75.5075 65.2048 77.4958 63.8625 79.467Z" fill="#EC685A" fill-opacity="0.67"/>
<path d="M67.2578 68.1639C67.2089 66.7739 67.5459 65.0659 68.2946 62.7524C69.6529 59.3019 70.0626 58.9146 70.9849 57.8044C71.7971 57.0948 72.7817 56.0488 73.127 56.401C73.3614 56.9135 71.068 59.1736 69.7295 62.166C68.5532 64.7957 68.3519 68.1744 67.9861 68.9075C67.4115 70.059 67.2938 69.1877 67.2578 68.1639Z" fill="#EC685A" fill-opacity="0.67"/>
</g>
<defs>
<filter id="filter0_f_3212_142" x="38.54" y="65.032" width="106.595" height="95.4695" filterUnits="userSpaceOnUse" color-interpolation-filters="sRGB">
<feFlood flood-opacity="0" result="BackgroundImageFix"/>
<feBlend mode="normal" in="SourceGraphic" in2="BackgroundImageFix" result="shape"/>
<feGaussianBlur stdDeviation="1.5" result="effect1_foregroundBlur_3212_142"/>
</filter>
<filter id="filter1_f_3212_142" x="9.93652" y="14.2854" width="82.1382" height="75.2771" filterUnits="userSpaceOnUse" color-interpolation-filters="sRGB">
<feFlood flood-opacity="0" result="BackgroundImageFix"/>
<feBlend mode="normal" in="SourceGraphic" in2="BackgroundImageFix" result="shape"/>
<feGaussianBlur stdDeviation="0.5" result="effect1_foregroundBlur_3212_142"/>
</filter>
</defs>
</svg>
