<svg width="149" height="169" viewBox="0 0 149 169" fill="none" xmlns="http://www.w3.org/2000/svg">
<g filter="url(#filter0_f_3212_142)">
<path d="M61.3246 68.1477C66.9387 69.6794 96.0098 95.1751 96.0098 95.1751C96.0098 95.1751 119.923 116.59 122.693 118.593C125.464 120.596 129.252 124.348 132.122 126.392C136.989 129.859 138.058 130.491 139.891 131.885C141.73 133.284 143.747 141.562 140.113 147.397C133.092 158.67 121.193 157.752 117.619 157.233C106.983 155.687 39.8239 96.2727 41.5734 88.469C43.3229 80.6653 55.7106 66.616 61.3246 68.1477Z" fill="#FFF1CC"/>
</g>
<path d="M46.7003 87.5452C46.818 83.928 58.6151 71.1439 64.5286 72.7987C67.1158 73.5227 68.1902 74.8882 68.306 77.5996C68.5707 83.7971 56.1755 93.765 50.2619 92.1102C47.6747 91.3863 46.617 90.1055 46.7003 87.5452Z" fill="#A38071"/>
<g filter="url(#filter1_f_3212_142)">
<path d="M11.1592 45.7611C13.1946 43.7533 21.7767 51.5755 21.7767 51.5755C21.7767 51.5755 29.9583 57.7627 31.0465 57.4127C33.1646 56.7314 29.2696 53.3768 23.8851 45.0068C17.2308 34.6629 12.0709 29.509 17.1301 28.8941C19.3968 28.6187 23.9766 35.7539 27.0245 38.8758C30.1163 42.6557 35.6849 53.1816 37.3598 51.4137C38.6859 50.0141 37.1212 44.5274 34.3853 37.7793C28.6884 23.7276 25.687 18.866 30.5665 17.5295C33.6516 16.6845 38.5605 30.9264 40.2383 34.79C42.2212 39.3563 45.8219 47.4394 47.2354 47.3556C48.6489 47.2718 47.0043 40.9941 45.9382 35.1127C44.872 29.2312 42.5491 15.4983 46.0328 15.2918C48.8234 15.1264 49.739 18.1992 49.9149 20.8308C50.0908 23.4624 57.2859 56.2371 60.1145 56.0695C66.0477 55.7178 65.7656 51.8336 70.2358 48.2039C73.4976 45.5554 78.4998 44.4113 78.4998 44.4113C78.4998 44.4113 84.9811 42.8926 89.1047 43.7827C96.3066 45.3374 81.5916 48.1913 79.6026 50.2907C77.6135 52.3902 69.9019 60.4341 69.1698 64.1194C68.1076 69.4665 67.1776 76.7872 67.1776 76.7872C67.1776 76.7872 66.0823 82.6594 57.8951 86.5846C49.7078 90.5098 44.4624 87.3808 44.4624 87.3808C44.4624 87.3808 40.2885 86.8135 37.3565 82.2331C34.4245 77.6526 32.6182 69.1603 28.7834 65.1924C22.2296 58.4111 9.06644 47.8254 11.1592 45.7611Z" fill="#F7AD83"/>
<line x1="0.5" y1="-0.5" x2="27.7618" y2="-0.5" transform="matrix(-0.210673 -0.977556 0.982785 -0.184755 55.7422 47.9268)" stroke="#EC685A" stroke-opacity="0.49" stroke-linecap="round"/>
<line x1="0.5" y1="-0.5" x2="5.7504" y2="-0.5" transform="matrix(0.902222 -0.431272 0.4824 0.875951 60.1021 58.4298)" stroke="#EC685A" stroke-opacity="0.49" stroke-linecap="round"/>
<line x1="0.5" y1="-0.5" x2="27.974" y2="-0.5" transform="matrix(-0.397459 -0.91762 0.935923 -0.352204 45.522 46.5892)" stroke="#EC685A" stroke-opacity="0.49" stroke-linecap="round"/>
<line x1="0.5" y1="-0.5" x2="19.7387" y2="-0.5" transform="matrix(-0.590714 -0.806881 0.844248 -0.535952 36.4077 52.715)" stroke="#EC685A" stroke-opacity="0.53" stroke-linecap="round"/>
<line x1="0.5" y1="-0.5" x2="13.7106" y2="-0.5" transform="matrix(-0.797996 -0.602663 0.657438 -0.753509 30.2622 58.1915)" stroke="#EC685A" stroke-opacity="0.6" stroke-linecap="round"/>
<path d="M63.8625 79.4669C62.0398 82.1434 59.2256 84.017 54.9907 85.513C48.3249 86.8827 47.2044 86.1196 44.3574 84.8306C42.2154 83.2128 39.3656 81.5861 39.3458 79.7213C39.7047 77.9632 46.1022 82.0693 52.1153 81.4537C57.3997 80.9127 62.2933 75.548 63.8213 75.5322C66.2214 75.5074 65.2048 77.4957 63.8625 79.4669Z" fill="#EC685A" fill-opacity="0.67"/>
<path d="M67.2578 68.1639C67.2089 66.7739 67.5459 65.0659 68.2946 62.7524C69.6529 59.3019 70.0626 58.9146 70.9849 57.8044C71.7971 57.0948 72.7817 56.0488 73.127 56.401C73.3614 56.9135 71.068 59.1736 69.7295 62.166C68.5532 64.7957 68.3519 68.1744 67.9861 68.9075C67.4115 70.059 67.2938 69.1877 67.2578 68.1639Z" fill="#EC685A" fill-opacity="0.67"/>
</g>
<defs>
<filter id="filter0_f_3212_142" x="39.54" y="66.032" width="104.595" height="93.4695" filterUnits="userSpaceOnUse" color-interpolation-filters="sRGB">
<feFlood flood-opacity="0" result="BackgroundImageFix"/>
<feBlend mode="normal" in="SourceGraphic" in2="BackgroundImageFix" result="shape"/>
<feGaussianBlur stdDeviation="1" result="effect1_foregroundBlur_3212_142"/>
</filter>
<filter id="filter1_f_3212_142" x="10.436" y="14.7854" width="81.1387" height="74.2771" filterUnits="userSpaceOnUse" color-interpolation-filters="sRGB">
<feFlood flood-opacity="0" result="BackgroundImageFix"/>
<feBlend mode="normal" in="SourceGraphic" in2="BackgroundImageFix" result="shape"/>
<feGaussianBlur stdDeviation="0.25" result="effect1_foregroundBlur_3212_142"/>
</filter>
</defs>
</svg>
