<svg width="32" height="34" viewBox="0 0 32 34" fill="none" xmlns="http://www.w3.org/2000/svg">
<path d="M5.41289 13.7955C3.47108 13.451 1.79388 12.2364 0.860787 10.499C-2.03985 5.09792 3.52754 -0.920331 9.13767 1.5518L22.4302 7.40919C23.5898 7.9202 24.3382 9.06787 24.3382 10.3351V13.2111C24.3382 15.0419 26.5666 15.9421 27.8382 14.625C29.1099 13.3079 31.3382 14.2081 31.3382 16.0389V26.9617C31.3382 31.0868 27.5183 34.1511 23.4913 33.2562L23.124 33.1746C20.0356 32.4883 17.8382 29.7491 17.8382 26.5853V24.1757C17.8382 19.4461 14.4451 15.398 9.78825 14.5718L5.41289 13.7955Z" fill="#FFB629"/>
</svg>
